<?xml version="1.0" standalone="no"?><!DOCTYPE svg PUBLIC "-//W3C//DTD SVG 1.1//EN" "http://www.w3.org/Graphics/SVG/1.1/DTD/svg11.dtd"><svg t="1625676564221" class="icon" viewBox="0 0 1024 1024" version="1.1" xmlns="http://www.w3.org/2000/svg" p-id="2435" xmlns:xlink="http://www.w3.org/1999/xlink" width="200" height="200"><defs><style type="text/css"></style></defs><path d="M374.778 321.029c-11.428 11.46-11.985 30.01-0.525 41.432L482.585 471.08v5.446h-86.794c-16.183 0.007-29.298 13.12-29.306 29.306 0.008 16.18 13.123 29.295 29.306 29.295h86.794v58.61h-86.794a29.283 29.283 0 0 0-20.724 8.577 29.286 29.286 0 0 0-8.582 20.717 29.286 29.286 0 0 0 8.582 20.726 29.287 29.287 0 0 0 20.725 8.58h86.794v87.119a29.29 29.29 0 0 0 29.294 29.303 29.288 29.288 0 0 0 29.306-29.303v-87.12h88.9a29.273 29.273 0 0 0 20.729-8.572 29.307 29.307 0 0 0 8.578-20.733 29.287 29.287 0 0 0-8.578-20.726 29.29 29.29 0 0 0-20.728-8.569h-88.9v-58.61h88.9a29.28 29.28 0 0 0 20.72-8.578 29.304 29.304 0 0 0 0.004-41.442 29.288 29.288 0 0 0-20.724-8.581h-88.9v-1.2l108.59-113.428c11.17-11.715 10.985-30.27-0.735-41.428a29.135 29.135 0 0 0-41.288 1.022l-93.032 97.778-98.51-98.3a29.278 29.278 0 0 0-20.728-8.565 29.287 29.287 0 0 0-20.707 8.625z m0 0" p-id="2436"></path><path d="M948.87 489.7v21.756h-61.942l0.013 0.944c0 206.801-168.218 375.039-375.015 375.069-206.601 0.037-375.122-168.472-375.122-375.07 0-206.813 168.25-375.063 375.063-375.063l0.368 0.008V74.836l-0.004-0.005c-241.428-0.2-437.903 196.137-437.932 437.523-0.024 241.44 196.137 437.636 437.577 437.631 241.29-0.004 437.581-196.286 437.581-437.585 0-7.608-0.195-15.18-0.588-22.7z m0 0" p-id="2437"></path><path d="M522.963 137.295h-10.724v-62.46h10.724c17.25 0 31.231 13.981 31.231 31.232 0 17.246-13.98 31.228-31.231 31.228zM917.9 479.733c-17.105 0-30.965 13.863-30.969 30.964v0.759h61.94v-0.76c-0.007-17.1-13.871-30.963-30.971-30.963zM820.61 83.088a28.048 28.048 0 0 0-39.738 0c-11.007 11.002-11.007 28.85 0 39.79l68.701 68.703h-163.45c-16.157 0.008-29.256 13.108-29.26 29.264a29.245 29.245 0 0 0 29.26 29.256h163.451l-68.7 68.702a28.092 28.092 0 0 0-8.257 19.898 28.099 28.099 0 0 0 8.256 19.897 28.034 28.034 0 0 0 19.87 8.248 28.051 28.051 0 0 0 19.868-8.248l111.704-111.771c9.947-4.685 17.146-14.281 17.146-25.982 0-3.93-1.862-7.203-3.274-10.653-0.171-0.584-0.288-1.17-0.53-1.7-1.227-2.513-2.518-4.613-4.439-6.664-0.585-0.705-0.827-1.528-1.465-2.172-2.172-2.163-4.74-3.507-7.262-4.856-0.526-0.23-0.756-0.814-1.229-0.998L820.611 83.088z m110.651 110.714" p-id="2438"></path></svg>